<?xml version="1.0" standalone="no"?><!DOCTYPE svg PUBLIC "-//W3C//DTD SVG 1.1//EN" "http://www.w3.org/Graphics/SVG/1.1/DTD/svg11.dtd"><svg t="1564400919883" class="icon" viewBox="0 0 1024 1024" version="1.1" xmlns="http://www.w3.org/2000/svg" p-id="5170" xmlns:xlink="http://www.w3.org/1999/xlink" width="250" height="250"><defs><style type="text/css"></style></defs><path d="M540.444444 396.942222h-66.133333v98.56H540.444444a52.622222 52.622222 0 0 0 38.115556-13.368889 47.36 47.36 0 0 0 14.222222-35.697777 48.071111 48.071111 0 0 0-14.222222-35.84 52.053333 52.053333 0 0 0-38.115556-13.653334z" fill="#7CAD47" p-id="5171"></path><path d="M512 71.111111a440.888889 440.888889 0 1 0 440.888889 440.888889A440.888889 440.888889 0 0 0 512 71.111111z m142.222222 418.56A105.102222 105.102222 0 0 1 630.897778 526.222222a113.777778 113.777778 0 0 1-37.404445 24.32 134.115556 134.115556 0 0 1-49.92 8.817778h-69.262222v158.435556a23.608889 23.608889 0 0 1-23.466667 23.608888h-23.324444a23.608889 23.608889 0 0 1-23.466667-23.608888v-384h139.52a134.115556 134.115556 0 0 1 49.92 8.817777 113.777778 113.777778 0 0 1 37.404445 24.32A104.533333 104.533333 0 0 1 654.222222 403.2a119.324444 119.324444 0 0 1 0 86.471111z" fill="#7CAD47" p-id="5172"></path><path d="M512 0a512 512 0 1 0 512 512A512 512 0 0 0 512 0z m0 995.555556a483.555556 483.555556 0 1 1 483.555556-483.555556 483.555556 483.555556 0 0 1-483.555556 483.555556z" fill="#7CAD47" p-id="5173"></path></svg>