<?xml version="1.0" standalone="no"?><!DOCTYPE svg PUBLIC "-//W3C//DTD SVG 1.1//EN" "http://www.w3.org/Graphics/SVG/1.1/DTD/svg11.dtd"><svg t="1564400180839" class="icon" viewBox="0 0 1024 1024" version="1.1" xmlns="http://www.w3.org/2000/svg" p-id="4113" width="250" height="250" xmlns:xlink="http://www.w3.org/1999/xlink"><defs><style type="text/css"></style></defs><path d="M513.536 490.496m-313.856 0a313.856 313.856 0 1 0 627.712 0 313.856 313.856 0 1 0-627.712 0Z" fill="#AEE2FF" p-id="4114"></path><path d="M563.2 572.928c68.608 0 124.416-55.808 124.416-124.416S631.808 324.096 563.2 324.096H430.08v248.832h133.12z m-133.632 395.264c0 18.944-15.36 34.816-34.816 34.816-3.072 0-5.632-0.512-8.704-1.024-223.744-57.344-379.904-258.56-379.904-489.472C6.656 233.472 232.96 7.168 512 7.168s505.344 226.304 505.344 505.344c0 243.2-173.056 450.56-408.576 496.128-18.944 3.584-36.864-8.704-40.448-27.648-3.584-18.944 8.704-36.864 27.648-40.448 203.264-39.424 352.768-218.112 352.768-428.032 0-240.64-195.072-436.224-436.224-436.224S75.776 271.36 75.776 512.512c0 182.272 113.664 345.6 284.672 409.088V289.28c0-18.944 15.36-34.816 34.816-34.816H563.2c107.008-1.024 194.56 84.48 196.096 191.488 1.024 107.008-84.48 194.56-191.488 196.096H430.08v326.144h-0.512z" fill="#5A5A5A" p-id="4115"></path></svg>