<svg height="512pt" viewBox="0 0 512 512" width="512pt" xmlns="http://www.w3.org/2000/svg"><path d="m305.871094 161.0625c0-88.808594-72.25-161.0625-161.0625-161.0625h-134.808594c-5.523438 0-10 4.476562-10 10v492c0 5.523438 4.476562 10 10 10h96c5.523438 0 10-4.476562 10-10v-179.871094h28.808594c88.8125 0 161.0625-72.253906 161.0625-161.066406zm-161.0625 141.066406h-38.808594c-5.523438 0-10 4.476563-10 10v179.871094h-36v-91.5c0-5.523438-4.476562-10-10-10s-10 4.476562-10 10v91.5h-20v-472h124.808594c77.785156 0 141.0625 63.28125 141.0625 141.0625s-63.277344 141.066406-141.0625 141.066406zm0 0"/><path d="m144.808594 96h-38.808594c-5.523438 0-10 4.476562-10 10v110.128906c0 5.519532 4.476562 10 10 10h38.808594c35.878906 0 65.0625-29.191406 65.0625-65.066406s-29.183594-65.0625-65.0625-65.0625zm0 110.128906h-28.808594v-90.128906h28.808594c24.847656 0 45.0625 20.214844 45.0625 45.0625s-20.214844 45.066406-45.0625 45.066406zm0 0"/><path d="m478.703125 364.160156-16.855469-47.238281c-5.320312-14.90625-19.527344-24.921875-35.355468-24.921875h-137.984376c-15.800781 0-30 9.992188-35.335937 24.863281l-16.964844 47.304688c-18.601562 1.75-33.207031 17.449219-33.207031 36.5v34.667969c0 19.699218 15.617188 35.8125 35.121094 36.625v17.03125c0 12.6875 10.320312 23.007812 23.007812 23.007812h15.609375c12.6875 0 23.007813-10.320312 23.007813-23.007812v-16.992188h115.507812v16.992188c0 12.6875 10.320313 23.007812 23.007813 23.007812h15.609375c12.6875 0 23.007812-10.320312 23.007812-23.007812v-17.03125c19.503906-.8125 35.121094-16.929688 35.121094-36.628907v-34.667969c0-19.078124-14.652344-34.792968-33.296875-36.503906zm-206.707031-40.542968c2.496094-6.949219 9.128906-11.617188 16.511718-11.617188h137.984376c7.394531 0 14.03125 4.679688 16.519531 11.644531l14.398437 40.355469h-199.894531zm7.75 165.375c0 1.660156-1.347656 3.007812-3.007813 3.007812h-15.609375c-1.65625 0-3.007812-1.351562-3.007812-3.007812v-16.992188h21.625zm177.132812 0c0 1.660156-1.351562 3.007812-3.007812 3.007812h-15.609375c-1.660157 0-3.007813-1.351562-3.007813-3.007812v-16.992188h21.625zm35.121094-53.660157c0 9.191407-7.476562 16.667969-16.667969 16.667969h-235.664062c-9.191407 0-16.667969-7.476562-16.667969-16.667969v-34.667969c0-9.1875 7.476562-16.664062 16.667969-16.664062h3.566406c.023437 0 .046875.003906.070313.003906.023437 0 .050781-.003906.074218-.003906h231.957032c9.1875 0 16.664062 7.476562 16.664062 16.664062zm0 0"/><path d="m275.949219 408c-2.628907 0-5.210938 1.070312-7.070313 2.929688-1.859375 1.859374-2.929687 4.441406-2.929687 7.070312s1.070312 5.210938 2.929687 7.070312c1.859375 1.859376 4.441406 2.929688 7.070313 2.929688 2.628906 0 5.210937-1.070312 7.070312-2.929688 1.859375-1.859374 2.929688-4.441406 2.929688-7.070312s-1.070313-5.210938-2.929688-7.070312c-1.859375-1.859376-4.441406-2.929688-7.070312-2.929688zm0 0"/><path d="m398.949219 408h-83c-5.519531 0-10 4.476562-10 10s4.480469 10 10 10h83c5.523437 0 10-4.476562 10-10s-4.476563-10-10-10zm0 0"/><path d="m437.089844 408c-2.640625 0-5.210938 1.070312-7.078125 2.929688-1.863281 1.859374-2.921875 4.441406-2.921875 7.070312s1.058594 5.210938 2.921875 7.070312c1.867187 1.859376 4.4375 2.929688 7.078125 2.929688 2.628906 0 5.210937-1.070312 7.070312-2.929688 1.859375-1.859374 2.929688-4.441406 2.929688-7.070312s-1.070313-5.210938-2.929688-7.070312c-1.859375-1.859376-4.441406-2.929688-7.070312-2.929688zm0 0"/><path d="m50 350.5c-2.628906 0-5.210938 1.070312-7.070312 2.929688-1.859376 1.859374-2.929688 4.441406-2.929688 7.070312s1.070312 5.210938 2.929688 7.070312c1.859374 1.859376 4.441406 2.929688 7.070312 2.929688s5.210938-1.070312 7.070312-2.929688c1.859376-1.859374 2.929688-4.441406 2.929688-7.070312s-1.070312-5.210938-2.929688-7.070312c-1.859374-1.859376-4.441406-2.929688-7.070312-2.929688zm0 0"/></svg>